<?xml version="1.0" encoding="utf-8"?>
<!-- Generator: Adobe Illustrator 19.2.1, SVG Export Plug-In . SVG Version: 6.00 Build 0)  -->
<svg version="1.1" id="Layer_1" xmlns="http://www.w3.org/2000/svg" xmlns:xlink="http://www.w3.org/1999/xlink" x="0px" y="0px"
	 viewBox="0 0 1000 1000" style="enable-background:new 0 0 1000 1000;" xml:space="preserve">
<style type="text/css">
	.st0{fill:none;stroke:#000000;stroke-width:30;}
</style>
<g>
	<path d="M60.4,919.6c0-37.1-0.4-40.8-17.2-40.8v-4.1h26.6c5.2-0.2,9.6-0.2,14.2-0.3c4.4-0.2,9-0.2,14.2-0.2
		c16.1,0,29.7,1.8,39.8,6.1c14.7,5.9,23.9,16.8,23.9,31.5c0,7.3-2.3,13-5.9,18.2c-3.8,5.3-9.2,10-16.8,13.5
		c-7.3,3.6-16.3,6.1-26.6,7.1c-7.8,1.1-16.1,1.1-22.2,1.1v6.4c0,27.1,0.4,30.8,18.4,30.8v4.4c-10.5-0.2-21.8-0.3-33.5-0.3
		c-11.9,0-23.3,0.2-32,0.3v-4.4c17.4,0,17-3.6,17-43.7V919.6z M130,912.6c0-6.8-3.6-12.7-10.9-16.2c-4.8-2.4-11.3-3.6-18.6-3.6
		c-2.9,0-6.9,0.2-9.8,0.5v40.6c2.5,0,6.7,0,10.1-0.2c5.2-0.5,10.5-1.1,14.9-2.7c4.4-1.5,8.4-4.2,10.9-7.4c1.9-2.6,3.6-6.7,3.6-10.8
		V912.6z"/>
	<path d="M313.2,945c0,40.1,0,43.9,18.6,43.9v4.4c-8.4-0.2-20.7-0.3-33.9-0.3c-13.6,0-24.5,0.2-33.1,0.3v-4.4
		c18.4,0,18.4-3.6,18.4-43.4v-25.8c0-37.3,0-41-17.6-41v-4.4c8.2,0.2,20.3,0.3,32.3,0.3c12.8,0,25.5-0.2,32.1-0.3v4.4
		c-16.8,0-16.8,3.5-16.8,40.8V945z"/>
	<path d="M479.8,891.9h-24.5c-14.6,0-19,4.1-20.2,15.8h-5.3c0-13.5-0.2-25-0.2-33.4c19,0.2,36,0.3,53.2,0.3h25.3
		c19.6,0,36.2-0.2,51.4-0.3c0,8.3-0.2,19.9-0.2,33.4h-5.1c-1.2-12.1-5.5-15.8-20.2-15.8h-24.3v53.3c0,40.1,0.2,43.7,19,43.7l0,4.4
		c-8.5-0.2-20.7-0.3-33.4-0.3c-12.4,0-25.9,0.2-33.4,0.3v-4.4c18,0,18-3.6,18-43.7V891.9z"/>
	<path d="M641.3,933.9c0-38,31-59.6,68.6-59.6c4.6,0,9.7,0.3,14.3,0.7c4.2,0.3,9.1,1,13.1,1.6c-0.6,10.7-0.9,17.2-1.2,34h-3.9
		c-0.7-7.1-3.1-11-6.2-13.5c-3.4-2.7-10.4-4.2-18.1-4.2c-22.9,0-41.7,15.3-41.7,40.3c0,25.4,17.5,41,40.3,41
		c7.1,0,14.3-1.6,18.3-4.3c3.7-2.4,6.5-5.5,7.4-12.8h4c-0.1,11.4,0,23.6,0.3,31.9c-2.7,0.9-7,1.9-11.3,2.7
		c-5.9,1.2-11.9,1.5-18.9,1.5c-37.1,0-64.9-22.7-64.9-59.3V933.9z"/>
	<path d="M934.5,945.2c0,39.9,0,43.7,15.2,43.7v4.4c-6.9-0.2-16.2-0.3-25.9-0.3c-10.2,0-20,0.2-27.7,0.3v-4.4
		c14.8,0,14.8-3.8,14.8-35.5v-11.2h-52.8v11.2c0,31.7,0,35.5,14.6,35.5v4.4c-7.5-0.2-17-0.3-27-0.3c-9.9,0-19.5,0.2-25.8,0.3v-4.4
		c14.5,0,14.5-3.8,14.5-43.7v-25.5c0-37.2,0-41-13.8-41v-4.4c6,0.2,16.2,0.3,26.1,0.3c9.7,0,18.5-0.2,24.7-0.3v4.4
		c-13.2,0-13.2,3.8-13.2,36.1v8.7H911v-9c0-32,0-35.8-12.9-35.8v-4.4c6.3,0.2,15.2,0.3,25,0.3c9.4,0,18.2-0.2,24-0.3v4.4
		c-12.6,0-12.6,3.8-12.6,41V945.2z"/>
</g>
<g>
	
		<rect x="204.6" y="148" transform="matrix(0.7071 -0.7071 0.7071 0.7071 -164.8361 477.9504)" class="st0" width="579.8" height="579.8"/>
	<path d="M556.3,778.5l2-420.7c6.7-121.1,119.9-166,119.9-166l110.9,115c0,0-92.5,31.3-92.5,117.1c0,66.7,0,238.2,0,238.2"/>
	<polyline points="399.1,144.4 399.1,662.8 317.2,662.8 153.9,489.4 353.5,489.4 353.3,176.1 	"/>
</g>
</svg>
